<svg width="63" height="57" viewBox="0 0 63 57" fill="none" xmlns="http://www.w3.org/2000/svg">
<g filter="url(#filter0_d_129_115)">
<path d="M20.9781 24.4456C22.3271 20.6409 25.3604 16.993 29.2289 15.4815C31.0817 14.7575 33.009 14.2438 34.8815 13.5753C37.532 12.629 39.997 11.2712 42.144 9.44836C43.6328 8.18432 45.0232 6.97837 46.8858 6.25063C48.4971 5.62108 50.2334 5.35923 51.9473 5.68941C59.7213 7.18848 60.0095 15.3876 57.8263 21.6182C56.6458 24.9873 55.4612 28.3955 54.9184 31.9358C54.4988 34.6731 54.4576 36.9674 53.3193 39.5319C50.8609 45.0705 45.7364 48.2561 39.7539 48.7942C30.1795 49.6554 20.4975 44.1186 19.717 33.8149C19.7169 33.8137 19.7168 33.8123 19.7167 33.8111C19.4862 30.767 19.9041 27.4749 20.9781 24.4456Z" fill="#11EB68"/>
<path d="M28.4946 28.4036C33.7403 23.1747 33.7403 14.6968 28.4946 9.46788C23.2489 4.23891 14.7439 4.23891 9.49821 9.46788C4.25249 14.6968 4.25249 23.1747 9.49821 28.4036C14.7439 33.6326 23.2489 33.6326 28.4946 28.4036Z" fill="#3F717C"/>
<path d="M32.4298 18.9358C32.4298 17.4237 32.1747 15.9719 31.7113 14.6163C30.8768 14.8848 30.0456 15.1625 29.229 15.4815C25.3605 16.9929 22.3272 20.6409 20.9782 24.4456C20.0787 26.9826 19.6413 29.7034 19.6577 32.3089C26.7694 31.9656 32.4298 26.1099 32.4298 18.9358Z" fill="#7CC176"/>
</g>
<defs>
<filter id="filter0_d_129_115" x="1.56396" y="5.54601" width="61.436" height="51.3356" filterUnits="userSpaceOnUse" color-interpolation-filters="sRGB">
<feFlood flood-opacity="0" result="BackgroundImageFix"/>
<feColorMatrix in="SourceAlpha" type="matrix" values="0 0 0 0 0 0 0 0 0 0 0 0 0 0 0 0 0 0 127 0" result="hardAlpha"/>
<feOffset dy="4"/>
<feGaussianBlur stdDeviation="2"/>
<feComposite in2="hardAlpha" operator="out"/>
<feColorMatrix type="matrix" values="0 0 0 0 0 0 0 0 0 0 0 0 0 0 0 0 0 0 0.25 0"/>
<feBlend mode="normal" in2="BackgroundImageFix" result="effect1_dropShadow_129_115"/>
<feBlend mode="normal" in="SourceGraphic" in2="effect1_dropShadow_129_115" result="shape"/>
</filter>
</defs>
</svg>
